/* XPM */
static char *_4d8fd3aeb5849c5f585c5a232b1525fp1Mc6j6cgctBM8nP[] = {
/* columns rows colors chars-per-pixel */
"40 40 122 2 ",
"   c #373F38",
".  c #3B3B3A",
"X  c #3D3D3B",
"o  c #3F3F3E",
"O  c #364138",
"+  c #364139",
"@  c #37453A",
"#  c #3B403B",
"$  c #40403F",
"%  c #3D6349",
"&  c #3E6449",
"*  c #3D684A",
"=  c #3F724F",
"-  c #474745",
";  c #464845",
":  c #464F47",
">  c #484848",
",  c #494949",
"<  c #4A4B49",
"1  c #4B4B4A",
"2  c #4B4B4B",
"3  c #4C4C4B",
"4  c gray30",
"5  c #4F4F4E",
"6  c gray31",
"7  c #455147",
"8  c #445C4A",
"9  c #50504F",
"0  c #4B5B50",
"q  c #4D5B53",
"w  c #4F5D53",
"e  c #4E5E53",
"r  c #505050",
"t  c #515151",
"y  c #535352",
"u  c #535353",
"i  c gray33",
"p  c #555555",
"a  c gray34",
"s  c #525953",
"d  c #565B57",
"f  c #535D56",
"g  c #575C57",
"h  c #565D57",
"j  c #585857",
"k  c #585858",
"l  c #595958",
"z  c #585B58",
"x  c #5A5B59",
"c  c #5C5C5A",
"v  c #5C5C5B",
"b  c #5F5F5E",
"n  c #5F5F5F",
"m  c #41624B",
"M  c #40654A",
"N  c #46614F",
"B  c #43674E",
"V  c #45644F",
"C  c #46654E",
"Z  c #416A4E",
"A  c #416D4F",
"S  c #4D6153",
"D  c #4F6053",
"F  c #486451",
"G  c #436A50",
"H  c #456850",
"J  c #466851",
"K  c #436E50",
"L  c #526055",
"P  c #5D605E",
"I  c #5D645F",
"U  c #437051",
"Y  c #437554",
"T  c #60605F",
"R  c #61615F",
"E  c #606060",
"W  c #606261",
"Q  c #636361",
"!  c #636362",
"~  c gray39",
"^  c #646463",
"/  c #646464",
"(  c #676766",
")  c #686867",
"_  c #686868",
"`  c DimGray",
"'  c #6A6A69",
"]  c #6A6A6A",
"[  c #6C6C6A",
"{  c #6B6B6C",
"}  c #6C6C6C",
"|  c gray43",
" . c #6F6F6F",
".. c gray44",
"X. c #727272",
"o. c #747474",
"O. c gray46",
"+. c #767676",
"@. c #777776",
"#. c #777876",
"$. c #787877",
"%. c #797978",
"&. c #7B7B7A",
"*. c #7C7C7C",
"=. c gray49",
"-. c #80807F",
";. c #818181",
":. c #838383",
">. c #848484",
",. c #868686",
"<. c gray53",
"1. c #878788",
"2. c #888888",
"3. c #89898A",
"4. c #89898B",
"5. c #8B8B8B",
"6. c gray55",
"7. c #8C8C8D",
"8. c #8E8E8E",
"9. c #B0AAAA",
"0. c #C6C4C4",
"q. c gray87",
/* pixels */
", 5 r r r r r r 9 r r r r r 9 9 9 9 r r 9 9 9 9 9 9 9 9 9 9 5 5 r 3 2 5 2 5 r 2 ",
"5 Q b Q R R R R R R R R R 9 3 3 , 3 , 3 < 3 3 3 3 - - v R b R j l l l l l l v 5 ",
"r R j l l l l l j j l j - Q ) ] ) ) ] ) ) [ ) [ ) ) Q - l j j l b l d c l l l 5 ",
"r R l l v l l l v l v j $ %.6.6.6.,.,.6.8.6.3.6.3.6.&.$ l v l l l l l l l v v 2 ",
"5 Q l l l l l v j v j v $ $.3.3.6.3.3.3.6.<.6.:.[ ;.$.X l l v l a l l c l l l , ",
"r Q l l l v l l v j v j X %.3.3.3.6.3.6.3.6.6.<.;.<.%.o v l l l h h l l Q l l 3 ",
"r Q l v v l v l v v j v X +.3.3.3.3.3.<.6.3.<.3.3.3.$.o d d l g B w l b k l l 5 ",
"5 R l l l l l b y y v l X $.3.3.;.,.6.&.<.6.6.6.3.3.+.o q Z f f m d l l l l d 4 ",
"r b l l l v l Q 5 , l l o $.3.3.} +.7.5.3.7.=.1.5.3.+.# M Z V M * L l c k c l 5 ",
"r Q l l l v l R 5 , l l o %.1.6.3.3.7.5.5.7.1.7.5.3.$.@ V j l j F f c l k c j 5 ",
"r Q l l l l v l v l v l o / +.;.;.;.;.;.;.;.;.;.;.+.] O V j l v l b k k q F h , ",
"r Q l l v l l l l l v l o a } } } [  .} } } } } } } j O V g l l l l g k 0 Y L 5 ",
"r R l l v l l v l v l l o a / / / ( Q / / / / Q Q Q d . U L g j g c s D & V l 3 ",
"r R l l v l l v l l v l o l ] } ] R } ] } } Q ] } ] j . K L l j l S % G D d b , ",
"r R l l l l l l v v l l X l %.%.+./ =.%.%.=.Q +.%.%.j $ F B g l h & U f l c k 5 ",
"r R l l l v v l l l l v X l { } ] Q } } } } E ] } } j $ l Z L g w Z L l l d d 5 ",
"5 Q l v l l l v l l l c o j b Q Q l Q E E Q l E E E a X g 8 * Z F f l c k l k 2 ",
"r Q l l v v l l c c l l . j $.$.$.*./ X.X./ *.%.%.$.l . S m N l l l c k d b k 5 ",
"r E l l l l v l l l c l o k X.+.o.+./ } } / +.X.o.X.l O = F l l l v l v j l b 2 ",
"5 l v l l v l l l v l l X a ] } } } E ] _ Q } ] } } k . Z f l l l v l l l l l 5 ",
"2 l l l l l v v l l v l o r b R b b c b c l b b P P i . N d l l l v l l v l k 5 ",
"r Q l l v l l l v l v l o l -./ %.=.;.;.;.;.;.%./ -.l   e k l c l v l v l k v 2 ",
"5 Q l l v l l l l v l l o a } Q } ....} } } X.} Q } a o l l l c l l v l l v u > ",
"r Q l v l l v v l l l v o a _ b / ] ] _ ] ] ] / b ] a o c c l l v l l l v l 6 , ",
"r E l v l l l v v l a 2 - r Q Q Q E E ~ Q E E Q Q Q d o 3 j l l l v l l l l 2 > ",
"5 l l l l v l l l l 2 ~ 3.] -.:.:.o...,.:...o.1.;.=.) 5.Q 2 l l l v l v v l , , ",
"2 l v v v l v l l v 2 n 3./ } } } _ / } } / ~ } { } / 3.Q 5 b j l l l v l l r > ",
"2 l l l l l v l l v 2 Q 3.Q / / / E E / / n W / ^ / / 5.b , j j l v l l l v l 5 ",
"2 b l 0.q.q.q.q.l l r n 3./ ] E ] } } { } } { _ ^ { Q 4.Q , l l l v l l v l k 5 ",
"5 b 0.q.q.q.q.q.q.l 3 Q 3.] %./ X.%.%.%.%.%.%.+.Q $._ 4.b , k c l v l v l k v 2 ",
"2 l 0.q.9.0.q.9.0.l , Q 3./ } n ] } } } ] } ] ] W { / 5.Q : g l l l l l l v v 2 ",
"5 l 0.q.q.q.q.q.q.l 2 Q 2.Q Q l b n n Q b Q R Q j P W 1.I 7 g l v l l 5 a l k 3 ",
"2 l r 0.q.q.q.q.q.v 2 Q 5.=.%.%.%.%.%.%.%.=.%.&.%.&.=.5.Q - - i b c g r l v l 2 ",
"r a r r 0.q.r 0.q.r > E 1.2.1.5.3.3.3.3.1.3.3.3.3.3.3.<.b , 5 i k k a b l l l 5 ",
"5 c r r r r r r r c 5 r { ] { } ] { ] { [ ] ] } } } [ } r 5 b l k d k c l v k 5 ",
"5 b l c v l l v v l 5 5 / ] 0.q.] / _ _ ( ] ) / / / ] ( r 5 l l c a b b l k v 3 ",
"5 E l l l c l l r 0.q.q.q.q.q.q.q.n } } } } } } } } } } a , l v l l v l l v l 3 ",
"r R l l l l v l l r 0.q.l l l l k / Q ~ ~ Q ~ ~ Q / Q / k 5 l l l v l l l l k 5 ",
"r R l l c l l l c l l l l l l l l l v l l l l l l l v l l l l l l l v v v v l 2 ",
"r k , 5 5 2 5 2 2 5 5 2 5 2 2 5 2 5 2 2 2 5 5 2 9 , 5 2 , 9 3 5 5 2 2 2 2 2 2 2 "
};
